<svg xmlns="http://www.w3.org/2000/svg" viewBox="0 0 480 340" role="img" aria-hidden="true">
  <!-- flat illustration: solid fills only, no gradients. Icons: Tabler Icons (MIT) -->
  <circle cx="240" cy="170" r="160" fill="#174BAD"/>
  <rect x="56" y="64" width="270" height="190" rx="14" fill="#fff"/>
  <path d="M56 78a14 14 0 0 1 14 -14h242a14 14 0 0 1 14 14v18h-270z" fill="#EAF2FF"/>
  <circle cx="78" cy="80" r="5" fill="#8DB8FF"/><circle cx="96" cy="80" r="5" fill="#8DB8FF"/><circle cx="114" cy="80" r="5" fill="#8DB8FF"/>
  <rect x="76" y="110" width="230" height="54" rx="8" fill="#8DB8FF"/><rect x="92" y="124" width="100" height="10" rx="5" fill="#fff"/><rect x="92" y="142" width="64" height="8" rx="4" fill="#1F5FD8"/>
  <rect x="76" y="176" width="70" height="64" rx="8" fill="#EAF2FF"/><rect x="156" y="176" width="70" height="64" rx="8" fill="#EAF2FF"/><rect x="236" y="176" width="70" height="64" rx="8" fill="#EAF2FF"/>
  <circle cx="111" cy="196" r="9" fill="#1F5FD8"/><circle cx="191" cy="196" r="9" fill="#1F5FD8"/><circle cx="271" cy="196" r="9" fill="#1F5FD8"/>
  <rect x="88" y="214" width="46" height="7" rx="3.5" fill="#8DB8FF"/><rect x="168" y="214" width="46" height="7" rx="3.5" fill="#8DB8FF"/><rect x="248" y="214" width="46" height="7" rx="3.5" fill="#8DB8FF"/>
  <rect x="316" y="104" width="112" height="206" rx="22" fill="#0A1F44"/><rect x="326" y="120" width="92" height="174" rx="12" fill="#EAF2FF"/>
  <rect x="356" y="110" width="32" height="5" rx="2.5" fill="#174BAD"/>
  <rect x="336" y="134" width="72" height="28" rx="8" fill="#fff"/><circle cx="352" cy="148" r="7" fill="#1F5FD8"/><rect x="366" y="144" width="34" height="6" rx="3" fill="#8DB8FF"/><rect x="336" y="172" width="72" height="28" rx="8" fill="#fff"/><circle cx="352" cy="186" r="7" fill="#8DB8FF"/><rect x="366" y="182" width="34" height="6" rx="3" fill="#8DB8FF"/><rect x="336" y="210" width="72" height="28" rx="8" fill="#fff"/><circle cx="352" cy="224" r="7" fill="#1F5FD8"/><rect x="366" y="220" width="34" height="6" rx="3" fill="#8DB8FF"/><rect x="336" y="248" width="72" height="28" rx="8" fill="#fff"/><circle cx="352" cy="262" r="7" fill="#8DB8FF"/><rect x="366" y="258" width="34" height="6" rx="3" fill="#8DB8FF"/>
  <path d="M70 296H250" stroke="#8DB8FF" stroke-width="4" stroke-linecap="round"/>
  <path d="M110 296C124 296 124 276 140 276H196C212 276 212 296 226 296" stroke="#fff" stroke-width="4" fill="none" stroke-linecap="round"/>
  <circle cx="70" cy="296" r="8" fill="#fff"/><circle cx="110" cy="296" r="8" fill="#fff"/><circle cx="140" cy="276" r="8" fill="#8DB8FF"/>
  <circle cx="196" cy="276" r="8" fill="#8DB8FF"/><circle cx="226" cy="296" r="8" fill="#fff"/><circle cx="250" cy="296" r="8" fill="#fff"/>
  <circle cx="338" cy="70" r="30" fill="#1F5FD8" stroke="#fff" stroke-width="4"/>
  <g transform="translate(338 70) scale(1.7) translate(-12 -12)" fill="none" stroke="#fff" stroke-width="2" stroke-linecap="round" stroke-linejoin="round"><path d="M7 8l-4 4l4 4" /><path d="M17 8l4 4l-4 4" /><path d="M14 4l-4 16" /></g>
</svg>
